<svg width="488" height="77" viewBox="0 0 488 77" fill="none" xmlns="http://www.w3.org/2000/svg">
<path d="M57.1237 8.29717C59.7549 7.74801 65.1739 7.17923 71.791 8.00788C73.4783 8.21872 74.5836 9.83678 74.2804 11.5137L69.5755 37.388C69.4875 37.8685 69.5168 38.3686 69.6587 38.8394L75.8112 59.2074C76.5497 61.6492 74.1777 63.8948 71.7763 63.0662C70.7982 62.7279 69.8152 62.3994 68.9299 62.115C67.2328 61.5707 65.7265 62.9044 64.6359 64.3165C62.6013 66.9496 57.5883 69.3276 47.7384 65.1501C43.7329 63.4535 35.1154 58.6631 32.494 66.0768C31.1099 64.6892 32.7385 60.6636 35.7268 58.668C39.4242 56.1968 44.7257 60.2959 52.0471 52.9557C52.9715 52.029 57.7448 47.5524 57.1286 48.0133C46.4375 56.0546 32.494 52.4899 32.0294 47.5524C41.1115 50.9503 43.3759 46.5914 42.9602 43.6936C42.0358 37.2066 33.6727 35.564 29.8726 38.1333C24.6395 41.8401 13.1805 47.7044 9.23859 41.5312C5.29666 35.3532 1.07596 37.6724 0 37.8244C3.08116 35.0443 5.11081 34.1176 8.31424 37.2066C11.5177 40.2956 16.2177 40.7565 18.1691 40.6045C22.9424 39.6778 23.3092 36.1622 24.0184 34.4265C25.0943 31.8032 22.7859 28.2484 18.4772 27.6306C21.8664 26.0861 24.6346 25.4683 26.4833 25.4683C37.3212 25.4683 41.1115 33.0339 50.5017 33.9607C57.246 34.6275 58.9528 31.2786 59.0115 28.9839C59.0213 28.4985 58.8355 28.0425 58.5371 27.6551C55.7103 24.012 48.5552 18.1527 39.1112 19.908C29.1341 21.7614 15.0928 20.06 15.0928 20.06C15.0928 20.06 22.3311 19.908 27.256 18.3635C32.181 16.819 35.1105 14.3478 40.8033 12.0334C46.501 9.71911 52.3504 10.18 57.7399 11.2636C60.782 11.8716 62.929 13.2887 64.181 14.4654C64.9489 15.1862 65.9221 15.7403 66.9736 15.7403H68.167C68.9837 15.7403 69.5413 15.2597 69.106 14.5684C68.6218 13.8084 67.6241 12.6414 65.7461 10.9547C62.6405 8.15988 59.0751 7.96865 57.1188 8.30698C56.8303 8.36581 56.576 8.42956 56.3559 8.4884C56.5711 8.41975 56.8254 8.36091 57.1188 8.30698L57.1237 8.29717Z" fill="#212529"/>
<path d="M135.963 38.1431C135.963 39.7072 135.787 52.2545 126.935 62.7622C125.629 64.3116 124.406 65.4933 123.521 66.2925C121.452 66.1601 118.356 66.214 114.845 67.2829C114.17 67.4889 112.517 68.0233 109.519 69.6218C106.99 70.9653 103.567 73.0344 99.7765 76.1382V0.143066C102.344 0.290163 116.498 1.34436 126.832 13.4112C135.665 23.7227 135.968 35.3678 135.968 38.1431H135.963Z" fill="#212529"/>
<path d="M132.115 48.6607C132.125 49.5139 132.115 52.3921 130.897 55.8685C129.146 60.86 126.046 63.8558 124.045 65.7877C121.556 68.1903 119.297 69.5926 117.947 70.4213C117.169 70.8969 113.374 73.1818 108.175 74.6773C105.808 75.3588 103.861 75.6726 103.182 75.7756C101.846 75.9766 100.682 76.0796 99.7678 76.1384C99.7678 65.1209 99.7678 54.1082 99.7678 43.0907C99.7825 41.4726 100.066 38.6484 101.851 35.9271C105.187 30.8522 111.222 29.9746 112.386 29.8373C112.591 29.8127 112.753 29.798 112.86 29.7882C119.223 29.19 125.654 32.8626 129.552 39.0651C130.486 40.7666 132.052 44.1596 132.115 48.6656V48.6607Z" fill="#212529"/>
<path fill-rule="evenodd" clip-rule="evenodd" d="M95.8559 0.143066C75.9799 1.109 60.1535 17.7555 60.1535 38.1431C60.1535 58.5307 75.975 75.1771 95.8559 76.1431V62.8014C92.447 62.5464 89.2387 61.5756 86.363 60.0409L95.8559 46.8267V30.0429L86.0548 16.4022C89.0088 14.7743 92.3248 13.7495 95.8559 13.4847V0.143066ZM82.9639 57.8589C77.6477 53.7745 74.0383 47.5376 73.3927 40.428L91.5471 41.1929C91.7036 41.541 91.8895 41.8695 92.1047 42.1784L82.9639 57.8589ZM92.0607 34.6373C91.8699 34.9266 91.6987 35.2355 91.552 35.5542L73.3634 36.3191C73.8818 29.1309 77.4276 22.796 82.7194 18.6184L92.0607 34.6373Z" fill="#212529"/>
<path d="M163.625 25.0907C165.464 23.8551 167.753 23.2373 170.502 23.2373C173.553 23.2373 176.033 23.9973 177.945 25.5173C179.858 27.0177 181.212 29.1065 182.01 31.7836L188.915 29.8763C187.644 25.8703 185.438 22.6881 182.293 20.3297C179.148 17.9565 175.216 16.7699 170.502 16.7699C166.408 16.7699 162.906 17.6721 159.987 19.4765C157.067 21.2613 154.822 23.7619 153.252 26.9686C151.697 30.1803 150.924 33.9018 150.924 38.1382C150.924 42.3746 151.702 46.0961 153.252 49.3077C154.822 52.5193 157.072 55.0249 159.987 56.8293C162.906 58.6141 166.408 59.5064 170.502 59.5064C175.221 59.5064 179.148 58.3297 182.293 55.9761C185.438 53.603 187.644 50.411 188.915 46.405L182.01 44.4977C181.212 47.1552 179.858 49.2489 177.945 50.764C176.033 52.284 173.549 53.044 170.502 53.044C167.753 53.044 165.464 52.4262 163.625 51.1906C161.786 49.955 160.407 48.229 159.478 46.0079C158.568 43.7671 158.113 41.1439 158.113 38.1431C158.133 35.1423 158.598 32.5289 159.507 30.3077C160.437 28.067 161.811 26.3312 163.625 25.0956V25.0907Z" fill="#212529"/>
<path d="M204.102 17.6277L191.2 58.653H198.247L201.04 49.7635H217.16L219.987 58.653H227.034L214.133 17.6277H204.102ZM203.055 43.355L209.051 24.2716L215.121 43.355H203.055Z" fill="#212529"/>
<path d="M260.244 39.6236C261.931 37.2112 262.773 34.333 262.773 30.989C262.773 28.7286 262.396 26.6791 261.638 24.8355C260.9 22.9723 259.755 21.4375 258.2 20.2215C256.664 19.0055 254.713 18.2161 252.346 17.8582C251.817 17.7601 251.24 17.7062 250.614 17.6866C249.988 17.6474 249.48 17.6277 249.079 17.6277H232.171V58.653H239.018V44.3209H248.741L255.666 58.653H263.423L255.862 43.1049C257.691 42.3204 259.154 41.1632 260.239 39.6236H260.244ZM239.018 24.0706H248.795C249.176 24.0706 249.602 24.0902 250.076 24.1294C250.551 24.149 250.986 24.2128 251.382 24.3305C252.517 24.6148 253.407 25.1199 254.053 25.8406C254.718 26.5614 255.182 27.3901 255.446 28.3168C255.73 29.2288 255.872 30.1212 255.872 30.9939C255.872 31.8667 255.73 32.7591 255.446 33.6711C255.182 34.5831 254.718 35.397 254.053 36.1227C253.407 36.8435 252.517 37.3485 251.382 37.6329C250.986 37.7457 250.551 37.8241 250.076 37.8634C249.602 37.9026 249.176 37.9222 248.795 37.9222H239.018V24.0706Z" fill="#212529"/>
<path d="M296.913 38.4281C295.759 37.6093 294.556 36.9768 293.304 36.5208C292.052 36.0648 290.927 35.7019 289.919 35.4372L282.588 33.3876C281.659 33.1425 280.74 32.8385 279.83 32.4756C278.94 32.0981 278.191 31.593 277.585 30.9654C276.979 30.3182 276.675 29.4945 276.675 28.4893C276.675 27.4253 277.027 26.4937 277.727 25.6945C278.446 24.8952 279.385 24.2921 280.539 23.8705C281.713 23.4341 282.984 23.2232 284.349 23.2428C285.753 23.2821 287.068 23.5665 288.301 24.096C289.553 24.6256 290.599 25.4052 291.455 26.4299C292.326 27.4351 292.913 28.6609 293.216 30.1025L300.576 28.8227C299.97 26.2976 298.928 24.1401 297.451 22.3554C295.974 20.5706 294.135 19.2124 291.939 18.2808C289.743 17.3296 287.239 16.849 284.437 16.8294C281.674 16.8098 279.15 17.2462 276.881 18.1386C274.626 19.031 272.826 20.3794 271.481 22.1837C270.156 23.9685 269.491 26.1799 269.491 28.8227C269.491 30.6271 269.784 32.1471 270.371 33.3827C270.978 34.5987 271.745 35.6039 272.675 36.4031C273.624 37.1827 274.616 37.8005 275.658 38.2565C276.719 38.6929 277.702 39.0459 278.612 39.3107L289.186 42.4439C289.944 42.6743 290.604 42.9489 291.176 43.2725C291.763 43.5765 292.238 43.9197 292.6 44.2973C292.981 44.6748 293.265 45.1161 293.451 45.6065C293.641 46.0821 293.734 46.6018 293.734 47.1755C293.734 48.4454 293.328 49.5192 292.512 50.3969C291.714 51.2697 290.673 51.9365 289.386 52.3925C288.1 52.8485 286.726 53.079 285.268 53.079C282.808 53.079 280.627 52.4121 278.734 51.0834C276.856 49.7546 275.619 47.8717 275.012 45.4446L267.906 46.5283C268.322 49.2054 269.3 51.5247 270.831 53.481C272.386 55.4178 274.352 56.9084 276.744 57.9528C279.15 58.9972 281.85 59.5218 284.843 59.5218C286.946 59.5218 288.956 59.257 290.868 58.7226C292.8 58.193 294.517 57.3938 296.013 56.3298C297.51 55.2658 298.693 53.937 299.564 52.3386C300.454 50.7254 300.899 48.8524 300.899 46.7244C300.899 44.5964 300.518 42.9832 299.764 41.6545C299.026 40.3257 298.077 39.2519 296.923 38.433L296.913 38.4281Z" fill="#212529"/>
<path d="M338.641 17.6277H330.229L313.889 36.6621V17.6277H307.042V58.653H313.889V39.5059L331.139 58.653H339.835L321.049 37.7408L338.641 17.6277Z" fill="#212529"/>
<path d="M369.489 19.4814C366.569 17.677 363.068 16.7748 358.974 16.7748C354.881 16.7748 351.379 17.677 348.459 19.4814C345.539 21.2662 343.299 23.7668 341.724 26.9736C340.169 30.1852 339.396 33.9067 339.396 38.1431C339.396 42.3795 340.174 46.101 341.724 49.3126C343.299 52.5243 345.544 55.0298 348.459 56.8342C351.379 58.619 354.881 59.5114 358.974 59.5114C363.068 59.5114 366.569 58.619 369.489 56.8342C372.424 55.0298 374.668 52.5243 376.224 49.3126C377.794 46.101 378.581 42.3795 378.581 38.1431C378.581 33.9067 377.794 30.1852 376.224 26.9736C374.668 23.7619 372.424 21.2662 369.489 19.4814ZM369.944 46.0079C369.034 48.2486 367.66 49.9844 365.821 51.22C364.002 52.4556 361.718 53.0636 358.974 53.044C356.225 53.0048 353.937 52.3674 352.098 51.1366C350.278 49.901 348.914 48.1849 348.004 45.9785C347.094 43.7573 346.64 41.1439 346.64 38.1431C346.64 35.1423 347.094 32.5191 348.004 30.2783C348.933 28.0375 350.303 26.2969 352.122 25.0662C353.942 23.8306 356.225 23.2226 358.969 23.2422C361.718 23.2814 363.997 23.9139 365.816 25.1495C367.655 26.3852 369.029 28.1111 369.939 30.3323C370.868 32.5338 371.333 35.1374 371.333 38.1382C371.333 41.139 370.868 43.7622 369.939 46.003L369.944 46.0079Z" fill="#212529"/>
<path d="M412.321 39.6236C414.008 37.2112 414.849 34.333 414.849 30.989C414.849 28.7286 414.473 26.6791 413.714 24.8355C412.976 22.9723 411.831 21.4375 410.276 20.2215C408.741 19.0055 406.789 18.2161 404.422 17.8582C403.894 17.7601 403.312 17.7062 402.691 17.6866C402.065 17.6474 401.556 17.6277 401.155 17.6277H384.248V58.653H391.095V44.3209H400.822L407.748 58.653H415.504L407.943 43.1049C409.773 42.3204 411.235 41.1632 412.321 39.6236ZM391.095 24.0706H400.871C401.248 24.0706 401.673 24.0902 402.148 24.1294C402.622 24.149 403.058 24.2128 403.454 24.3305C404.588 24.6148 405.478 25.1199 406.124 25.8406C406.789 26.5614 407.249 27.3901 407.518 28.3168C407.802 29.2288 407.943 30.1212 407.943 30.9939C407.943 31.8667 407.802 32.7591 407.518 33.6711C407.254 34.5831 406.789 35.397 406.124 36.1227C405.478 36.8435 404.588 37.3485 403.454 37.6329C403.058 37.7457 402.622 37.8241 402.148 37.8634C401.673 37.9026 401.248 37.9222 400.871 37.9222H391.095V24.0706Z" fill="#212529"/>
<path d="M421.762 58.653H448.187V52.2151H428.609V40.619H444.778V34.181H428.609V24.0657H448.187V17.6277H421.762V58.653Z" fill="#212529"/>
<path d="M480.952 58.653H488L475.098 17.6277H465.067L452.166 58.653H459.213L462.006 49.7635H478.126L480.952 58.653ZM464.021 43.355L470.017 24.2716L476.086 43.355H464.021Z" fill="#212529"/>
</svg>
